<svg xmlns="http://www.w3.org/2000/svg" xmlns:xlink="http://www.w3.org/1999/xlink" version="1.2" width="210.00mm" height="297.00mm" viewBox="0 0 34.1433 48.2884">
<!-- Page: 1/1 -->
<text transform="translate(1.6259, 0.8129)" font-family="Century Schoolbook L" font-size="2.2002" text-anchor="start" fill="currentColor">
<tspan>
 </tspan>
</text>
<rect transform="translate(1.6259, 9.3562)" x="10.8233" y="-0.0765" width="1.9744" height="0.1531" ry="0.0765" fill="currentColor"/>
<rect transform="translate(1.6259, 10.3562)" x="10.8233" y="-0.0765" width="1.9744" height="0.1531" ry="0.0765" fill="currentColor"/>
<rect transform="translate(1.6259, 11.3562)" x="10.8233" y="-0.0765" width="1.9744" height="0.1531" ry="0.0765" fill="currentColor"/>
<rect transform="translate(1.6259, 12.3562)" x="10.8233" y="-0.0765" width="1.9744" height="0.1531" ry="0.0765" fill="currentColor"/>
<rect transform="translate(1.6259, 9.3562)" x="15.7828" y="-0.0765" width="1.9744" height="0.1531" ry="0.0765" fill="currentColor"/>
<rect transform="translate(1.6259, 3.3562)" x="25.8951" y="-0.0765" width="1.9744" height="0.1531" ry="0.0765" fill="currentColor"/>
<rect transform="translate(1.6259, 2.3562)" x="25.8951" y="-0.0765" width="1.9744" height="0.1531" ry="0.0765" fill="currentColor"/>
<line transform="translate(4.0647, 8.3562)" stroke-linejoin="round" stroke-linecap="round" stroke-width="0.0531" stroke="currentColor" x1="0.0265" y1="-0.0000" x2="28.4262" y2="-0.0000"/>
<line transform="translate(4.0647, 7.3562)" stroke-linejoin="round" stroke-linecap="round" stroke-width="0.0531" stroke="currentColor" x1="0.0265" y1="-0.0000" x2="28.4262" y2="-0.0000"/>
<line transform="translate(4.0647, 6.3562)" stroke-linejoin="round" stroke-linecap="round" stroke-width="0.0531" stroke="currentColor" x1="0.0265" y1="-0.0000" x2="28.4262" y2="-0.0000"/>
<line transform="translate(4.0647, 5.3562)" stroke-linejoin="round" stroke-linecap="round" stroke-width="0.0531" stroke="currentColor" x1="0.0265" y1="-0.0000" x2="28.4262" y2="-0.0000"/>
<line transform="translate(4.0647, 4.3562)" stroke-linejoin="round" stroke-linecap="round" stroke-width="0.0531" stroke="currentColor" x1="0.0265" y1="-0.0000" x2="28.4262" y2="-0.0000"/>
<rect transform="translate(32.4166, 6.3562)" x="0.0000" y="-2.0000" width="0.1008" height="4.0000" ry="0.0000" fill="currentColor"/>
<a style="color:inherit;" xlink:href="textedit:///media/poloextra/dev/lilypond/lilysrc/c.ly:4:7:8">
<path transform="translate(22.8905, 5.8562) scale(0.0040, -0.0040)" d="M224 136c53 0 105 -26 105 -86c0 -71 -57 -122 -104 -150c-36 -22 -78 -36 -120 -36c-53 0 -105 26 -105 86c0 71 58 122 105 150c36 22 77 36 119 36z" fill="currentColor"/>
</a>
<rect transform="translate(22.9250, 6.3562)" x="-0.0345" y="-0.3017" width="0.0690" height="3.3017" ry="0.0114" fill="currentColor"/>
<a style="color:inherit;" xlink:href="textedit:///media/poloextra/dev/lilypond/lilysrc/c.ly:4:11:12">
<path transform="translate(27.8500, 2.3562) scale(0.0040, -0.0040)" d="M224 136c53 0 105 -26 105 -86c0 -71 -57 -122 -104 -150c-36 -22 -78 -36 -120 -36c-53 0 -105 26 -105 86c0 71 58 122 105 150c36 22 77 36 119 36z" fill="currentColor"/>
</a>
<rect transform="translate(27.8845, 6.3562)" x="-0.0345" y="-3.8017" width="0.0690" height="3.8017" ry="0.0114" fill="currentColor"/>
<a style="color:inherit;" xlink:href="textedit:///media/poloextra/dev/lilypond/lilysrc/c.ly:4:2:3">
<path transform="translate(12.7782, 12.8562) scale(0.0040, -0.0040)" d="M224 136c53 0 105 -26 105 -86c0 -71 -57 -122 -104 -150c-36 -22 -78 -36 -120 -36c-53 0 -105 26 -105 86c0 71 58 122 105 150c36 22 77 36 119 36z" fill="currentColor"/>
</a>
<path transform="translate(4.8647, 7.3562) scale(0.0040, -0.0040)" d="M374 260c5 0 10 1 15 1c154 0 254 -127 254 -259c0 -76 -33 -153 -107 -208c-22 -17 -47 -29 -73 -37c3 -36 5 -72 5 -108c0 -19 0 -37 -1 -56c-7 -120 -88 -226 -206 -226c-108 0 -195 87 -195 195c0 58 53 104 112 104c54 0 95 -48 95 -104c0 -52 -43 -95 -95 -95
c-12 0 -24 4 -35 9c26 -41 70 -70 121 -70c96 0 157 93 163 193c1 18 2 35 2 53c0 32 -2 64 -5 96c-29 -5 -58 -8 -89 -8c-188 0 -333 171 -333 372c0 178 133 306 251 440c-18 63 -35 126 -42 191c-6 51 -7 102 -7 154c0 116 55 226 150 295c2 2 5 3 8 3s6 -1 8 -3
c70 -84 132 -246 132 -359c0 -144 -87 -256 -183 -365c20 -69 39 -138 55 -208zM459 -205c69 24 117 96 117 166c0 92 -69 184 -179 193c25 -117 48 -235 62 -359zM71 31c0 -136 131 -251 267 -251c28 0 55 2 82 6c-15 128 -38 247 -64 367c-79 -9 -125 -62 -125 -121
c0 -44 26 -92 82 -124c4 -4 7 -9 7 -14c0 -11 -9 -21 -20 -21c-3 0 -6 1 -9 2c-80 43 -116 114 -116 184c0 88 57 173 158 196c-14 60 -30 119 -46 178c-108 -121 -216 -242 -216 -402zM411 1050c-99 -50 -161 -151 -161 -262c0 -76 15 -137 33 -200c82 97 149 198 149 325
c0 58 -4 84 -21 137z" fill="currentColor"/>
<path transform="translate(9.0647, 6.3562) scale(0.0040, -0.0040)" d="M360 25c-51 0 -76 43 -76 77c0 39 28 78 74 78c6 0 13 0 18 -1c-29 37 -76 60 -126 60c-106 0 -113 -73 -113 -185c0 -17 1 -35 1 -54s-1 -37 -1 -54c0 -112 7 -185 113 -185c82 0 145 68 164 151c1 6 6 9 10 9c6 0 11 -4 11 -11c0 -94 -107 -171 -185 -171
c-68 0 -137 20 -184 69c-49 51 -66 122 -66 192s17 141 66 192c47 49 116 69 184 69c88 0 163 -63 178 -149c1 -5 2 -8 2 -13c0 -40 -32 -74 -70 -74z" fill="currentColor"/>
<rect transform="translate(14.0600, 6.3562)" x="-0.0345" y="-0.0000" width="0.0690" height="6.3017" ry="0.0114" fill="currentColor"/>
<a style="color:inherit;" xlink:href="textedit:///media/poloextra/dev/lilypond/lilysrc/c.ly:4:4:5">
<path transform="translate(17.7377, 9.3562) scale(0.0040, -0.0040)" d="M224 136c53 0 105 -26 105 -86c0 -71 -57 -122 -104 -150c-36 -22 -78 -36 -120 -36c-53 0 -105 26 -105 86c0 71 58 122 105 150c36 22 77 36 119 36z" fill="currentColor"/>
</a>
<rect transform="translate(19.0195, 6.3562)" x="-0.0345" y="-0.5000" width="0.0690" height="3.3017" ry="0.0114" fill="currentColor"/>
<rect transform="translate(1.6259, 21.3562)" x="11.5882" y="-0.0765" width="1.9744" height="0.1531" ry="0.0765" fill="currentColor"/>
<line transform="translate(1.6259, 20.3562)" stroke-linejoin="round" stroke-linecap="round" stroke-width="0.0531" stroke="currentColor" x1="0.0265" y1="-0.0000" x2="30.8650" y2="-0.0000"/>
<line transform="translate(1.6259, 19.3562)" stroke-linejoin="round" stroke-linecap="round" stroke-width="0.0531" stroke="currentColor" x1="0.0265" y1="-0.0000" x2="30.8650" y2="-0.0000"/>
<line transform="translate(1.6259, 18.3562)" stroke-linejoin="round" stroke-linecap="round" stroke-width="0.0531" stroke="currentColor" x1="0.0265" y1="-0.0000" x2="30.8650" y2="-0.0000"/>
<line transform="translate(1.6259, 17.3562)" stroke-linejoin="round" stroke-linecap="round" stroke-width="0.0531" stroke="currentColor" x1="0.0265" y1="-0.0000" x2="30.8650" y2="-0.0000"/>
<line transform="translate(1.6259, 16.3562)" stroke-linejoin="round" stroke-linecap="round" stroke-width="0.0531" stroke="currentColor" x1="0.0265" y1="-0.0000" x2="30.8650" y2="-0.0000"/>
<rect transform="translate(32.4166, 18.3562)" x="0.0000" y="-2.0000" width="0.1008" height="4.0000" ry="0.0000" fill="currentColor"/>
<a style="color:inherit;" xlink:href="textedit:///media/poloextra/dev/lilypond/lilysrc/c.ly:4:22:23">
<path transform="translate(20.0324, 18.3562) scale(0.0040, -0.0040)" d="M224 136c53 0 105 -26 105 -86c0 -71 -57 -122 -104 -150c-36 -22 -78 -36 -120 -36c-53 0 -105 26 -105 86c0 71 58 122 105 150c36 22 77 36 119 36z" fill="currentColor"/>
</a>
<rect transform="translate(20.0669, 18.3562)" x="-0.0345" y="0.1983" width="0.0690" height="3.1350" ry="0.0114" fill="currentColor"/>
<a style="color:inherit;" xlink:href="textedit:///media/poloextra/dev/lilypond/lilysrc/c.ly:4:25:26">
<path transform="translate(26.1349, 18.8562) scale(0.0040, -0.0040)" d="M224 136c53 0 105 -26 105 -86c0 -71 -57 -122 -104 -150c-36 -22 -78 -36 -120 -36c-53 0 -105 26 -105 86c0 71 58 122 105 150c36 22 77 36 119 36z" fill="currentColor"/>
</a>
<rect transform="translate(27.4167, 18.3562)" x="-0.0345" y="-3.0000" width="0.0690" height="3.3017" ry="0.0114" fill="currentColor"/>
<text transform="translate(0.6503, 15.3296)" font-family="Century Schoolbook L" font-size="1.7462" text-anchor="start" fill="currentColor">
<tspan>
2</tspan>
</text>
<path transform="translate(2.4259, 19.3562) scale(0.0040, -0.0040)" d="M374 260c5 0 10 1 15 1c154 0 254 -127 254 -259c0 -76 -33 -153 -107 -208c-22 -17 -47 -29 -73 -37c3 -36 5 -72 5 -108c0 -19 0 -37 -1 -56c-7 -120 -88 -226 -206 -226c-108 0 -195 87 -195 195c0 58 53 104 112 104c54 0 95 -48 95 -104c0 -52 -43 -95 -95 -95
c-12 0 -24 4 -35 9c26 -41 70 -70 121 -70c96 0 157 93 163 193c1 18 2 35 2 53c0 32 -2 64 -5 96c-29 -5 -58 -8 -89 -8c-188 0 -333 171 -333 372c0 178 133 306 251 440c-18 63 -35 126 -42 191c-6 51 -7 102 -7 154c0 116 55 226 150 295c2 2 5 3 8 3s6 -1 8 -3
c70 -84 132 -246 132 -359c0 -144 -87 -256 -183 -365c20 -69 39 -138 55 -208zM459 -205c69 24 117 96 117 166c0 92 -69 184 -179 193c25 -117 48 -235 62 -359zM71 31c0 -136 131 -251 267 -251c28 0 55 2 82 6c-15 128 -38 247 -64 367c-79 -9 -125 -62 -125 -121
c0 -44 26 -92 82 -124c4 -4 7 -9 7 -14c0 -11 -9 -21 -20 -21c-3 0 -6 1 -9 2c-80 43 -116 114 -116 184c0 88 57 173 158 196c-14 60 -30 119 -46 178c-108 -121 -216 -242 -216 -402zM411 1050c-99 -50 -161 -151 -161 -262c0 -76 15 -137 33 -200c82 97 149 198 149 325
c0 58 -4 84 -21 137z" fill="currentColor"/>
<a style="color:inherit;" xlink:href="textedit:///media/poloextra/dev/lilypond/lilysrc/c.ly:4:16:17">
<path transform="translate(7.4259, 20.8562) scale(0.0040, -0.0040)" d="M224 136c53 0 105 -26 105 -86c0 -71 -57 -122 -104 -150c-36 -22 -78 -36 -120 -36c-53 0 -105 26 -105 86c0 71 58 122 105 150c36 22 77 36 119 36z" fill="currentColor"/>
</a>
<rect transform="translate(8.7077, 18.3562)" x="-0.0345" y="-1.0000" width="0.0690" height="3.3017" ry="0.0114" fill="currentColor"/>
<a style="color:inherit;" xlink:href="textedit:///media/poloextra/dev/lilypond/lilysrc/c.ly:4:19:20">
<path transform="translate(13.5432, 21.3562) scale(0.0040, -0.0040)" d="M224 136c53 0 105 -26 105 -86c0 -71 -57 -122 -104 -150c-36 -22 -78 -36 -120 -36c-53 0 -105 26 -105 86c0 71 58 122 105 150c36 22 77 36 119 36z" fill="currentColor"/>
</a>
<rect transform="translate(14.8250, 18.3562)" x="-0.0345" y="-0.5000" width="0.0690" height="3.3017" ry="0.0114" fill="currentColor"/>
<rect transform="translate(1.6259, 27.3562)" x="23.7605" y="-0.0765" width="1.9744" height="0.1531" ry="0.0765" fill="currentColor"/>
<rect transform="translate(1.6259, 27.3562)" x="27.1615" y="-0.0765" width="1.9744" height="0.1531" ry="0.0765" fill="currentColor"/>
<line transform="translate(1.6259, 32.3562)" stroke-linejoin="round" stroke-linecap="round" stroke-width="0.0531" stroke="currentColor" x1="0.0265" y1="-0.0000" x2="30.8650" y2="-0.0000"/>
<line transform="translate(1.6259, 31.3562)" stroke-linejoin="round" stroke-linecap="round" stroke-width="0.0531" stroke="currentColor" x1="0.0265" y1="-0.0000" x2="30.8650" y2="-0.0000"/>
<line transform="translate(1.6259, 30.3562)" stroke-linejoin="round" stroke-linecap="round" stroke-width="0.0531" stroke="currentColor" x1="0.0265" y1="-0.0000" x2="30.8650" y2="-0.0000"/>
<line transform="translate(1.6259, 29.3562)" stroke-linejoin="round" stroke-linecap="round" stroke-width="0.0531" stroke="currentColor" x1="0.0265" y1="-0.0000" x2="30.8650" y2="-0.0000"/>
<line transform="translate(1.6259, 28.3562)" stroke-linejoin="round" stroke-linecap="round" stroke-width="0.0531" stroke="currentColor" x1="0.0265" y1="-0.0000" x2="30.8650" y2="-0.0000"/>
<rect transform="translate(20.8297, 30.3562)" x="0.0000" y="-2.0000" width="0.1008" height="4.0000" ry="0.0000" fill="currentColor"/>
<rect transform="translate(22.0990, 30.3562)" x="-0.0345" y="-0.3017" width="0.0690" height="3.3017" ry="0.0114" fill="currentColor"/>
<a style="color:inherit;" xlink:href="textedit:///media/poloextra/dev/lilypond/lilysrc/c.ly:4:44:45">
<path transform="translate(22.0645, 29.8562) scale(0.0040, -0.0040)" d="M224 136c53 0 105 -26 105 -86c0 -71 -57 -122 -104 -150c-36 -22 -78 -36 -120 -36c-53 0 -105 26 -105 86c0 71 58 122 105 150c36 22 77 36 119 36z" fill="currentColor"/>
</a>
<a style="color:inherit;" xlink:href="textedit:///media/poloextra/dev/lilypond/lilysrc/c.ly:4:52:53">
<path transform="translate(29.1165, 27.3562) scale(0.0040, -0.0040)" d="M224 136c53 0 105 -26 105 -86c0 -71 -57 -122 -104 -150c-36 -22 -78 -36 -120 -36c-53 0 -105 26 -105 86c0 71 58 122 105 150c36 22 77 36 119 36z" fill="currentColor"/>
</a>
<rect transform="translate(17.6633, 30.3562)" x="-0.0345" y="-0.8017" width="0.0690" height="3.3017" ry="0.0114" fill="currentColor"/>
<a style="color:inherit;" xlink:href="textedit:///media/poloextra/dev/lilypond/lilysrc/c.ly:4:40:41">
<path transform="translate(17.6288, 29.3562) scale(0.0040, -0.0040)" d="M224 136c53 0 105 -26 105 -86c0 -71 -57 -122 -104 -150c-36 -22 -78 -36 -120 -36c-53 0 -105 26 -105 86c0 71 58 122 105 150c36 22 77 36 119 36z" fill="currentColor"/>
</a>
<rect transform="translate(29.1509, 30.3562)" x="-0.0345" y="-2.8017" width="0.0690" height="3.3017" ry="0.0114" fill="currentColor"/>
<a style="color:inherit;" xlink:href="textedit:///media/poloextra/dev/lilypond/lilysrc/c.ly:4:48:49">
<path transform="translate(25.7155, 26.8562) scale(0.0040, -0.0040)" d="M224 136c53 0 105 -26 105 -86c0 -71 -57 -122 -104 -150c-36 -22 -78 -36 -120 -36c-53 0 -105 26 -105 86c0 71 58 122 105 150c36 22 77 36 119 36z" fill="currentColor"/>
</a>
<rect transform="translate(25.7500, 30.3562)" x="-0.0345" y="-3.3017" width="0.0690" height="3.3017" ry="0.0114" fill="currentColor"/>
<text transform="translate(0.6503, 27.3004)" font-family="Century Schoolbook L" font-size="1.7462" text-anchor="start" fill="currentColor">
<tspan>
3</tspan>
</text>
<path transform="translate(2.4259, 31.3562) scale(0.0040, -0.0040)" d="M374 260c5 0 10 1 15 1c154 0 254 -127 254 -259c0 -76 -33 -153 -107 -208c-22 -17 -47 -29 -73 -37c3 -36 5 -72 5 -108c0 -19 0 -37 -1 -56c-7 -120 -88 -226 -206 -226c-108 0 -195 87 -195 195c0 58 53 104 112 104c54 0 95 -48 95 -104c0 -52 -43 -95 -95 -95
c-12 0 -24 4 -35 9c26 -41 70 -70 121 -70c96 0 157 93 163 193c1 18 2 35 2 53c0 32 -2 64 -5 96c-29 -5 -58 -8 -89 -8c-188 0 -333 171 -333 372c0 178 133 306 251 440c-18 63 -35 126 -42 191c-6 51 -7 102 -7 154c0 116 55 226 150 295c2 2 5 3 8 3s6 -1 8 -3
c70 -84 132 -246 132 -359c0 -144 -87 -256 -183 -365c20 -69 39 -138 55 -208zM459 -205c69 24 117 96 117 166c0 92 -69 184 -179 193c25 -117 48 -235 62 -359zM71 31c0 -136 131 -251 267 -251c28 0 55 2 82 6c-15 128 -38 247 -64 367c-79 -9 -125 -62 -125 -121
c0 -44 26 -92 82 -124c4 -4 7 -9 7 -14c0 -11 -9 -21 -20 -21c-3 0 -6 1 -9 2c-80 43 -116 114 -116 184c0 88 57 173 158 196c-14 60 -30 119 -46 178c-108 -121 -216 -242 -216 -402zM411 1050c-99 -50 -161 -151 -161 -262c0 -76 15 -137 33 -200c82 97 149 198 149 325
c0 58 -4 84 -21 137z" fill="currentColor"/>
<a style="color:inherit;" xlink:href="textedit:///media/poloextra/dev/lilypond/lilysrc/c.ly:4:28:29">
<path transform="translate(7.4259, 27.8562) scale(0.0040, -0.0040)" d="M224 136c53 0 105 -26 105 -86c0 -71 -57 -122 -104 -150c-36 -22 -78 -36 -120 -36c-53 0 -105 26 -105 86c0 71 58 122 105 150c36 22 77 36 119 36z" fill="currentColor"/>
</a>
<rect transform="translate(7.4604, 30.3562)" x="-0.0345" y="-2.3017" width="0.0690" height="3.3017" ry="0.0114" fill="currentColor"/>
<a style="color:inherit;" xlink:href="textedit:///media/poloextra/dev/lilypond/lilysrc/c.ly:4:32:33">
<path transform="translate(10.8269, 28.3562) scale(0.0040, -0.0040)" d="M224 136c53 0 105 -26 105 -86c0 -71 -57 -122 -104 -150c-36 -22 -78 -36 -120 -36c-53 0 -105 26 -105 86c0 71 58 122 105 150c36 22 77 36 119 36z" fill="currentColor"/>
</a>
<rect transform="translate(10.8613, 30.3562)" x="-0.0345" y="-1.8017" width="0.0690" height="3.3017" ry="0.0114" fill="currentColor"/>
<a style="color:inherit;" xlink:href="textedit:///media/poloextra/dev/lilypond/lilysrc/c.ly:4:36:37">
<path transform="translate(14.2278, 28.8562) scale(0.0040, -0.0040)" d="M224 136c53 0 105 -26 105 -86c0 -71 -57 -122 -104 -150c-36 -22 -78 -36 -120 -36c-53 0 -105 26 -105 86c0 71 58 122 105 150c36 22 77 36 119 36z" fill="currentColor"/>
</a>
<rect transform="translate(14.2623, 30.3562)" x="-0.0345" y="-1.3017" width="0.0690" height="3.3017" ry="0.0114" fill="currentColor"/>
<a transform="translate(-11.1941, 46.8641)" xlink:href="http://lilypond.org/">
<rect x="0.0000" y="-0.4487" width="56.5316" height="2.0779" fill="none" stroke="none" stroke-width="0.0"/>
</a>
<text transform="translate(-11.1941, 46.8641)" font-family="Century Schoolbook L" font-size="2.2002" text-anchor="start" fill="currentColor">
<tspan>
Music engraving by LilyPond 2.18.2—www.lilypond.org</tspan>
</text>
</svg>
