<?xml version="1.0" encoding="UTF-8"?>
<svg width="210mm" height="297mm" version="1.2" viewBox="0 0 119.5 169.01" xmlns="http://www.w3.org/2000/svg" xmlns:xlink="http://www.w3.org/1999/xlink"><!-- Page: 1/1 -->
 <text transform="translate(5.6906 2.8453)" fill="currentColor" font-family="Century Schoolbook L" font-size="2.2001">
  <tspan></tspan>
 </text>
 <rect transform="translate(5.6906 10.621)" x="16.907" y="-.1" width="1.9743" height=".2" ry=".1" fill="currentColor"/>
 <line transform="translate(14.226 9.6213)" x1=".05" x2="21.384" stroke="currentColor" stroke-linecap="round" stroke-linejoin="round" stroke-width=".1"/>
 <line transform="translate(14.226 8.6213)" x1=".05" x2="21.384" stroke="currentColor" stroke-linecap="round" stroke-linejoin="round" stroke-width=".1"/>
 <line transform="translate(14.226 7.6213)" x1=".05" x2="21.384" stroke="currentColor" stroke-linecap="round" stroke-linejoin="round" stroke-width=".1"/>
 <line transform="translate(14.226 6.6213)" x1=".05" x2="21.384" stroke="currentColor" stroke-linecap="round" stroke-linejoin="round" stroke-width=".1"/>
 <line transform="translate(14.226 5.6213)" x1=".05" x2="21.384" stroke="currentColor" stroke-linecap="round" stroke-linejoin="round" stroke-width=".1"/>
 <rect transform="translate(35.47 7.6213)" y="-2" width=".19" height="4" ry="0" fill="currentColor"/>
 <a color="inherit" xlink:href="textedit:///media/poloextra/dev/lilypond/test.ly:3:8:9">
  <path transform="translate(29.455 8.6213) scale(.004 -.004)" d="m220 138c56 0 109-29 109-91 0-72-56-121-103-149-36-21-76-36-117-36-56 0-109 29-109 91 0 72 56 121 103 149 36 21 76 36 117 36z" fill="currentColor"/>
 </a>
 <rect transform="translate(30.706 7.6213)" x="-.065" y="-2.5" width=".13" height="3.3122" ry=".04" fill="currentColor"/>
 <a color="inherit" xlink:href="textedit:///media/poloextra/dev/lilypond/test.ly:3:11:12">
  <path transform="translate(32.219 9.6213) scale(.004 -.004)" d="m220 138c56 0 109-29 109-91 0-72-56-121-103-149-36-21-76-36-117-36-56 0-109 29-109 91 0 72 56 121 103 149 36 21 76 36 117 36z" fill="currentColor"/>
 </a>
 <rect transform="translate(33.47 7.6213)" x="-.065" y="-1.5" width=".13" height="3.3122" ry=".04" fill="currentColor"/>
 <a color="inherit" xlink:href="textedit:///media/poloextra/dev/lilypond/test.ly:3:2:3">
  <path transform="translate(22.926 10.621) scale(.004 -.004)" d="m220 138c56 0 109-29 109-91 0-72-56-121-103-149-36-21-76-36-117-36-56 0-109 29-109 91 0 72 56 121 103 149 36 21 76 36 117 36z" fill="currentColor"/>
 </a>
 <path transform="translate(15.026 8.6213) scale(.004 -.004)" d="m376 262c4 0 9 1 13 1 155 0 256-128 256-261 0-76-33-154-107-210-22-17-47-28-73-36 3-35 5-70 5-105 0-19-1-39-2-58-7-120-90-228-208-228-108 0-195 88-195 197 0 58 53 103 112 103 54 0 95-47 95-103 0-52-43-95-95-95-11 0-21 2-31 6 26-39 68-65 117-65 96 0 157 92 163 191 1 18 2 37 2 55 0 31-1 61-4 92-29-5-58-8-89-8-188 0-333 172-333 374 0 177 131 306 248 441-19 62-37 125-45 190-6 52-7 104-7 156 0 115 55 224 149 292 3 2 7 3 10 3 4 0 7 0 10-3 71-84 133-245 133-358 0-143-86-255-180-364 21-68 39-138 56-207zm85-465c68 24 113 95 113 164 0 90-66 179-173 190 24-116 46-231 60-354zm-387 231c0-135 129-247 264-247 28 0 55 2 82 6-14 127-37 245-63 364-79-8-124-61-124-119 0-44 25-91 81-123 5-5 7-10 7-15 0-11-10-22-22-22-3 0-6 1-9 2-80 43-117 115-117 185 0 88 58 174 160 197-14 58-29 117-46 175-107-121-213-243-213-403zm334 1017c-99-48-162-149-162-259 0-74 18-133 36-194 80 97 146 198 146 324 0 55-4 79-20 129z" fill="currentColor"/>
 <path transform="translate(19.226 7.6213) scale(.004 -.004)" d="m359 27c-49 0-75 42-75 75 0 38 27 77 72 77 4 0 9 0 14-1-28 37-72 59-120 59-106 0-113-73-113-186v-102c0-113 7-187 113-187 80 0 139 70 158 151 2 7 7 10 12 10 6 0 13-4 13-12 0-94-105-174-183-174-68 0-137 21-184 70-49 51-66 122-66 193s17 142 66 193c47 49 116 69 184 69 87 0 160-64 175-150 1-5 1-9 1-13 0-40-30-72-67-72z" fill="currentColor"/>
 <rect transform="translate(24.178 7.6213)" x="-.065" y="-.5" width=".13" height="3.3122" ry=".04" fill="currentColor"/>
 <a color="inherit" xlink:href="textedit:///media/poloextra/dev/lilypond/test.ly:3:5:6">
  <path transform="translate(26.191 9.6213) scale(.004 -.004)" d="m220 138c56 0 109-29 109-91 0-72-56-121-103-149-36-21-76-36-117-36-56 0-109 29-109 91 0 72 56 121 103 149 36 21 76 36 117 36z" fill="currentColor"/>
 </a>
 <rect transform="translate(27.442 7.6213)" x="-.065" y="-1.5" width=".13" height="3.3122" ry=".04" fill="currentColor"/>
 <a transform="translate(31.463 165.15)" xlink:href="http://lilypond.org/">
  <rect y="-.4439" width="56.576" height="2.0827" fill="none" stroke-width="0"/>
 </a>
 <text transform="translate(31.463 165.15)" fill="currentColor" font-family="Century Schoolbook L" font-size="2.2001">
  <tspan>Music engraving by LilyPond 2.18.2—www.lilypond.org</tspan>
 </text>
</svg>
